<?xml version="1.0" encoding="UTF-8" standalone="no"?><svg xmlns="http://www.w3.org/2000/svg" xmlns:xlink="http://www.w3.org/1999/xlink" contentStyleType="text/css" height="276px" preserveAspectRatio="none" style="width:469px;height:276px;background:#FFFFFF;" version="1.1" viewBox="0 0 469 276" width="469px" zoomAndPan="magnify"><defs/><g><!--MD5=[b33b912b16bbf8b200841e44226f4f5c]
entity ifrontend--><g id="elem_ifrontend"><ellipse cx="274.5" cy="31" fill="#F1F1F1" rx="8" ry="8" style="stroke:#181818;stroke-width:0.5;"/><text fill="#000000" font-family="sans-serif" font-size="14" lengthAdjust="spacing" textLength="29" x="260" y="62.5332">front</text><text fill="#000000" font-family="sans-serif" font-size="14" lengthAdjust="spacing" textLength="24" x="260" y="80.1426">end</text></g><!--MD5=[cda5134b1821e2d91e68680dfb44c1a4]
entity ijplag--><g id="elem_ijplag"><ellipse cx="112.5" cy="31" fill="#F1F1F1" rx="8" ry="8" style="stroke:#181818;stroke-width:0.5;"/><text fill="#000000" font-family="sans-serif" font-size="14" lengthAdjust="spacing" textLength="31" x="97" y="62.5332">jPlag</text></g><!--MD5=[1f1851644db767e9fb32c8499235219d]
entity ifeutils--><g id="elem_ifeutils"><ellipse cx="269.5" cy="139" fill="#F1F1F1" rx="8" ry="8" style="stroke:#181818;stroke-width:0.5;"/><text fill="#000000" font-family="sans-serif" font-size="14" lengthAdjust="spacing" textLength="25" x="257" y="170.5332">utils</text></g><!--MD5=[63e3102cac22dc3f29139d4c0429acf0]
entity jplag--><g id="elem_jplag"><rect fill="#F1F1F1" height="47.6094" rx="2.5" ry="2.5" style="stroke:#181818;stroke-width:0.5;" width="74" x="156.5" y="7"/><rect fill="#F1F1F1" height="10" style="stroke:#181818;stroke-width:0.5;" width="15" x="210.5" y="12"/><rect fill="#F1F1F1" height="2" style="stroke:#181818;stroke-width:0.5;" width="4" x="208.5" y="14"/><rect fill="#F1F1F1" height="2" style="stroke:#181818;stroke-width:0.5;" width="4" x="208.5" y="18"/><text fill="#000000" font-family="sans-serif" font-size="14" lengthAdjust="spacing" textLength="34" x="171.5" y="41.5332">JPlag</text></g><!--MD5=[c251b62818238b6f79269adc5bf7d1e2]
entity cli--><g id="elem_cli"><rect fill="#F1F1F1" height="47.6094" rx="2.5" ry="2.5" style="stroke:#181818;stroke-width:0.5;" width="61" x="7" y="7"/><rect fill="#F1F1F1" height="10" style="stroke:#181818;stroke-width:0.5;" width="15" x="48" y="12"/><rect fill="#F1F1F1" height="2" style="stroke:#181818;stroke-width:0.5;" width="4" x="46" y="14"/><rect fill="#F1F1F1" height="2" style="stroke:#181818;stroke-width:0.5;" width="4" x="46" y="18"/><text fill="#000000" font-family="sans-serif" font-size="14" lengthAdjust="spacing" textLength="21" x="22" y="41.5332">CLI</text></g><!--MD5=[431bf97f09493fe295d612ad4ebfd9b8]
entity java--><g id="elem_java"><rect fill="#F1F1F1" height="47.6094" rx="2.5" ry="2.5" style="stroke:#181818;stroke-width:0.5;" width="131" x="94" y="115"/><rect fill="#F1F1F1" height="10" style="stroke:#181818;stroke-width:0.5;" width="15" x="205" y="120"/><rect fill="#F1F1F1" height="2" style="stroke:#181818;stroke-width:0.5;" width="4" x="203" y="122"/><rect fill="#F1F1F1" height="2" style="stroke:#181818;stroke-width:0.5;" width="4" x="203" y="126"/><text fill="#000000" font-family="sans-serif" font-size="14" lengthAdjust="spacing" textLength="91" x="109" y="149.5332">Java Frontend</text></g><!--MD5=[ac5b1a3e361f0defafd8d2a0849c0137]
entity morefrontends--><g id="elem_morefrontends"><rect fill="#F1F1F1" height="47.6094" rx="2.5" ry="2.5" style="stroke:#181818;stroke-width:0.5;" width="149" x="314" y="115"/><rect fill="#F1F1F1" height="10" style="stroke:#181818;stroke-width:0.5;" width="15" x="443" y="120"/><rect fill="#F1F1F1" height="2" style="stroke:#181818;stroke-width:0.5;" width="4" x="441" y="122"/><rect fill="#F1F1F1" height="2" style="stroke:#181818;stroke-width:0.5;" width="4" x="441" y="126"/><text fill="#000000" font-family="sans-serif" font-size="14" lengthAdjust="spacing" textLength="109" x="329" y="149.5332">[More Frontends]</text></g><!--MD5=[df3c0c89853389bc26a869cf164ae7a1]
entity feutils--><g id="elem_feutils"><rect fill="#F1F1F1" height="47.6094" rx="2.5" ry="2.5" style="stroke:#181818;stroke-width:0.5;" width="140" x="199.5" y="223"/><rect fill="#F1F1F1" height="10" style="stroke:#181818;stroke-width:0.5;" width="15" x="319.5" y="228"/><rect fill="#F1F1F1" height="2" style="stroke:#181818;stroke-width:0.5;" width="4" x="317.5" y="230"/><rect fill="#F1F1F1" height="2" style="stroke:#181818;stroke-width:0.5;" width="4" x="317.5" y="234"/><text fill="#000000" font-family="sans-serif" font-size="14" lengthAdjust="spacing" textLength="100" x="214.5" y="257.5332">Utils 4 Frontend</text></g><!--MD5=[7e30b83a684fb1731f28c8a9c030f82a]
link ijplag to jplag--><g id="link_ijplag_jplag"><path d="M121.68,31 C133.27,31 144.87,31 156.47,31 " fill="none" id="ijplag-jplag" style="stroke:#181818;stroke-width:1.0;"/></g><!--MD5=[8649c1948b78b63c48f88f9fd94348b4]
link ifeutils to feutils--><g id="link_ifeutils_feutils"><path d="M269.5,148.32 C269.5,164.23 269.5,199.48 269.5,222.99 " fill="none" id="ifeutils-feutils" style="stroke:#181818;stroke-width:1.0;"/></g><!--MD5=[79f1202afc9f6297e06fa6c7761a83cf]
link ifrontend to java--><g id="link_ifrontend_java"><path d="M265.48,40.32 C248.21,56.23 209.97,91.48 184.46,114.99 " fill="none" id="ifrontend-java" style="stroke:#181818;stroke-width:1.0;"/></g><!--MD5=[bd73bbabbe40022063435498e88dfa7f]
link ifrontend to morefrontends--><g id="link_ifrontend_morefrontends"><path d="M283.45,40.32 C300.56,56.23 338.47,91.48 363.75,114.99 " fill="none" id="ifrontend-morefrontends" style="stroke:#181818;stroke-width:1.0;"/></g><!--MD5=[7bee61a2afcdf9c730888867a9b7ed04]
link java to ifeutils--><g id="link_java_ifeutils"><path d="M225.24,139 C233.52,139 241.79,139 250.07,139 " fill="none" id="java-to-ifeutils" style="stroke:#181818;stroke-width:1.0;"/><path d="M257.0818,130.5428 A9,9 0 0 0 257.0818 147.4572" fill="none" style="stroke:#181818;stroke-width:1.5;"/></g><!--MD5=[12d54f2f8a84e7bdf6c9a8ddab43cddb]
reverse link ifeutils to morefrontends--><g id="link_ifeutils_morefrontends"><path d="M288.95,139 C297.28,139 305.61,139 313.94,139 " fill="none" id="ifeutils-backto-morefrontends" style="stroke:#181818;stroke-width:1.0;"/><path d="M281.8782,147.4572 A9,9 0 0 0 281.8782 130.5428" fill="none" style="stroke:#181818;stroke-width:1.5;"/></g><!--MD5=[f3d4d2eaa2858833383a780e9df4deae]
link jplag to ifrontend--><g id="link_jplag_ifrontend"><path d="M230.52,31 C238.74,31 246.97,31 255.19,31 " fill="none" id="jplag-to-ifrontend" style="stroke:#181818;stroke-width:1.0;"/><path d="M262.1418,22.5428 A9,9 0 0 0 262.1418 39.4572" fill="none" style="stroke:#181818;stroke-width:1.5;"/></g><!--MD5=[92b7a10ef86c1c5991fa4fcadfd0c76e]
link cli to ijplag--><g id="link_cli_ijplag"><path d="M68.26,31 C76.53,31 84.81,31 93.08,31 " fill="none" id="cli-to-ijplag" style="stroke:#181818;stroke-width:1.0;"/><path d="M100.0918,22.5428 A9,9 0 0 0 100.0918 39.4572" fill="none" style="stroke:#181818;stroke-width:1.5;"/></g><!--MD5=[fe2fd0acae6229ef3ea62d7a8b47d98e]
@startuml
interface "front\nend" as ifrontend
interface jPlag as ijplag
interface utils as ifeutils

component JPlag as jplag
component CLI as cli

component "Java Frontend" as java
component "[More Frontends]" as morefrontends

component "Utils 4 Frontend" as feutils


ijplag -right- jplag
ifeutils - - feutils
ifrontend - - java
ifrontend - - morefrontends

java -right-( ifeutils
morefrontends -left-( ifeutils
jplag -right-( ifrontend
cli -right-( ijplag
@enduml

PlantUML version 1.2022.4(Sat Apr 09 15:29:17 CEST 2022)
(GPL source distribution)
Java Runtime: OpenJDK Runtime Environment
JVM: OpenJDK 64-Bit Server VM
Default Encoding: UTF-8
Language: en
Country: GB
--></g></svg>