<?xml version="1.0" encoding="UTF-8" standalone="no"?><svg xmlns="http://www.w3.org/2000/svg" xmlns:xlink="http://www.w3.org/1999/xlink" contentStyleType="text/css" height="471px" preserveAspectRatio="none" style="width:734px;height:471px;background:#FFFFFF;" version="1.1" viewBox="0 0 734 471" width="734px" zoomAndPan="magnify"><defs/><g><!--MD5=[2eec2f3d943037ea4f61b0242c0fe6d5]
class JPlagResult--><g id="elem_JPlagResult"><rect codeLine="1" fill="#F1F1F1" height="83.2188" id="JPlagResult" rx="2.5" ry="2.5" style="stroke:#181818;stroke-width:0.5;" width="204" x="161" y="33.5"/><ellipse cx="221.75" cy="49.5" fill="#ADD1B2" rx="11" ry="11" style="stroke:#181818;stroke-width:1.0;"/><path d="M224.5156,45.375 Q224.6719,45.1563 224.8594,45.0469 Q225.0469,44.9375 225.2656,44.9375 Q225.6406,44.9375 225.875,45.2031 Q226.1094,45.4531 226.1094,46.0625 L226.1094,47.5156 Q226.1094,48.125 225.875,48.3906 Q225.6406,48.6563 225.2656,48.6563 Q224.9219,48.6563 224.7188,48.4531 Q224.5156,48.2656 224.4063,47.75 Q224.3594,47.3906 224.1719,47.2031 Q223.8438,46.8281 223.2344,46.6094 Q222.625,46.3906 222,46.3906 Q221.2344,46.3906 220.5938,46.7188 Q219.9688,47.0469 219.4688,47.7969 Q218.9844,48.5469 218.9844,49.5781 L218.9844,50.6719 Q218.9844,51.9063 219.875,52.7344 Q220.7656,53.5469 222.3594,53.5469 Q223.2969,53.5469 223.9531,53.2969 Q224.3438,53.1406 224.7656,52.7031 Q225.0313,52.4375 225.1719,52.3594 Q225.3281,52.2813 225.5313,52.2813 Q225.8594,52.2813 226.1094,52.5469 Q226.375,52.7969 226.375,53.1406 Q226.375,53.4844 226.0313,53.8906 Q225.5313,54.4688 224.7344,54.7969 Q223.6563,55.25 222.3594,55.25 Q220.8438,55.25 219.6406,54.625 Q218.6563,54.125 217.9688,53.0625 Q217.2813,51.9844 217.2813,50.7031 L217.2813,49.5469 Q217.2813,48.2188 217.8906,47.0781 Q218.5156,45.9219 219.6094,45.3125 Q220.7031,44.6875 221.9375,44.6875 Q222.6719,44.6875 223.3125,44.8594 Q223.9688,45.0156 224.5156,45.375 Z " fill="#000000"/><text fill="#000000" font-family="sans-serif" font-size="14" lengthAdjust="spacing" textLength="74" x="242.25" y="55.2285">JPlagResult</text><line style="stroke:#181818;stroke-width:0.5;" x1="162" x2="364" y1="65.5" y2="65.5"/><line style="stroke:#181818;stroke-width:0.5;" x1="162" x2="364" y1="73.5" y2="73.5"/><text fill="#000000" font-family="sans-serif" font-size="14" lengthAdjust="spacing" textLength="123" x="167" y="92.0332">getDuration() : long</text><text fill="#000000" font-family="sans-serif" font-size="14" lengthAdjust="spacing" textLength="192" x="167" y="109.6426">getSimilarityDistribution() : int[]</text></g><!--MD5=[ca3ef47cb4f01dab929a94676c5b594d]
class SubmissionSet--><g id="elem_SubmissionSet"><rect codeLine="6" fill="#F1F1F1" height="48" id="SubmissionSet" rx="2.5" ry="2.5" style="stroke:#181818;stroke-width:0.5;" width="125" x="385.5" y="229.5"/><ellipse cx="400.5" cy="245.5" fill="#ADD1B2" rx="11" ry="11" style="stroke:#181818;stroke-width:1.0;"/><path d="M403.2656,241.375 Q403.4219,241.1563 403.6094,241.0469 Q403.7969,240.9375 404.0156,240.9375 Q404.3906,240.9375 404.625,241.2031 Q404.8594,241.4531 404.8594,242.0625 L404.8594,243.5156 Q404.8594,244.125 404.625,244.3906 Q404.3906,244.6563 404.0156,244.6563 Q403.6719,244.6563 403.4688,244.4531 Q403.2656,244.2656 403.1563,243.75 Q403.1094,243.3906 402.9219,243.2031 Q402.5938,242.8281 401.9844,242.6094 Q401.375,242.3906 400.75,242.3906 Q399.9844,242.3906 399.3438,242.7188 Q398.7188,243.0469 398.2188,243.7969 Q397.7344,244.5469 397.7344,245.5781 L397.7344,246.6719 Q397.7344,247.9063 398.625,248.7344 Q399.5156,249.5469 401.1094,249.5469 Q402.0469,249.5469 402.7031,249.2969 Q403.0938,249.1406 403.5156,248.7031 Q403.7813,248.4375 403.9219,248.3594 Q404.0781,248.2813 404.2813,248.2813 Q404.6094,248.2813 404.8594,248.5469 Q405.125,248.7969 405.125,249.1406 Q405.125,249.4844 404.7813,249.8906 Q404.2813,250.4688 403.4844,250.7969 Q402.4063,251.25 401.1094,251.25 Q399.5938,251.25 398.3906,250.625 Q397.4063,250.125 396.7188,249.0625 Q396.0313,247.9844 396.0313,246.7031 L396.0313,245.5469 Q396.0313,244.2188 396.6406,243.0781 Q397.2656,241.9219 398.3594,241.3125 Q399.4531,240.6875 400.6875,240.6875 Q401.4219,240.6875 402.0625,240.8594 Q402.7188,241.0156 403.2656,241.375 Z " fill="#000000"/><text fill="#000000" font-family="sans-serif" font-size="14" lengthAdjust="spacing" textLength="93" x="414.5" y="251.2285">SubmissionSet</text><line style="stroke:#181818;stroke-width:0.5;" x1="386.5" x2="509.5" y1="261.5" y2="261.5"/><line style="stroke:#181818;stroke-width:0.5;" x1="386.5" x2="509.5" y1="269.5" y2="269.5"/></g><!--MD5=[abb1e1a632bcc476e5a67b3706741525]
class JPlagComparison--><g id="elem_JPlagComparison"><rect codeLine="7" fill="#F1F1F1" height="48" id="JPlagComparison" rx="2.5" ry="2.5" style="stroke:#181818;stroke-width:0.5;" width="142" x="7" y="229.5"/><ellipse cx="22" cy="245.5" fill="#ADD1B2" rx="11" ry="11" style="stroke:#181818;stroke-width:1.0;"/><path d="M24.7656,241.375 Q24.9219,241.1563 25.1094,241.0469 Q25.2969,240.9375 25.5156,240.9375 Q25.8906,240.9375 26.125,241.2031 Q26.3594,241.4531 26.3594,242.0625 L26.3594,243.5156 Q26.3594,244.125 26.125,244.3906 Q25.8906,244.6563 25.5156,244.6563 Q25.1719,244.6563 24.9688,244.4531 Q24.7656,244.2656 24.6563,243.75 Q24.6094,243.3906 24.4219,243.2031 Q24.0938,242.8281 23.4844,242.6094 Q22.875,242.3906 22.25,242.3906 Q21.4844,242.3906 20.8438,242.7188 Q20.2188,243.0469 19.7188,243.7969 Q19.2344,244.5469 19.2344,245.5781 L19.2344,246.6719 Q19.2344,247.9063 20.125,248.7344 Q21.0156,249.5469 22.6094,249.5469 Q23.5469,249.5469 24.2031,249.2969 Q24.5938,249.1406 25.0156,248.7031 Q25.2813,248.4375 25.4219,248.3594 Q25.5781,248.2813 25.7813,248.2813 Q26.1094,248.2813 26.3594,248.5469 Q26.625,248.7969 26.625,249.1406 Q26.625,249.4844 26.2813,249.8906 Q25.7813,250.4688 24.9844,250.7969 Q23.9063,251.25 22.6094,251.25 Q21.0938,251.25 19.8906,250.625 Q18.9063,250.125 18.2188,249.0625 Q17.5313,247.9844 17.5313,246.7031 L17.5313,245.5469 Q17.5313,244.2188 18.1406,243.0781 Q18.7656,241.9219 19.8594,241.3125 Q20.9531,240.6875 22.1875,240.6875 Q22.9219,240.6875 23.5625,240.8594 Q24.2188,241.0156 24.7656,241.375 Z " fill="#000000"/><text fill="#000000" font-family="sans-serif" font-size="14" lengthAdjust="spacing" textLength="110" x="36" y="251.2285">JPlagComparison</text><line style="stroke:#181818;stroke-width:0.5;" x1="8" x2="148" y1="261.5" y2="261.5"/><line style="stroke:#181818;stroke-width:0.5;" x1="8" x2="148" y1="269.5" y2="269.5"/></g><!--MD5=[069e316646565394dbb5daf8eb5189df]
class JPlagOptions--><g id="elem_JPlagOptions"><rect codeLine="8" fill="#F1F1F1" height="48" id="JPlagOptions" rx="2.5" ry="2.5" style="stroke:#181818;stroke-width:0.5;" width="115" x="400.5" y="51"/><ellipse cx="415.5" cy="67" fill="#ADD1B2" rx="11" ry="11" style="stroke:#181818;stroke-width:1.0;"/><path d="M418.2656,62.875 Q418.4219,62.6563 418.6094,62.5469 Q418.7969,62.4375 419.0156,62.4375 Q419.3906,62.4375 419.625,62.7031 Q419.8594,62.9531 419.8594,63.5625 L419.8594,65.0156 Q419.8594,65.625 419.625,65.8906 Q419.3906,66.1563 419.0156,66.1563 Q418.6719,66.1563 418.4688,65.9531 Q418.2656,65.7656 418.1563,65.25 Q418.1094,64.8906 417.9219,64.7031 Q417.5938,64.3281 416.9844,64.1094 Q416.375,63.8906 415.75,63.8906 Q414.9844,63.8906 414.3438,64.2188 Q413.7188,64.5469 413.2188,65.2969 Q412.7344,66.0469 412.7344,67.0781 L412.7344,68.1719 Q412.7344,69.4063 413.625,70.2344 Q414.5156,71.0469 416.1094,71.0469 Q417.0469,71.0469 417.7031,70.7969 Q418.0938,70.6406 418.5156,70.2031 Q418.7813,69.9375 418.9219,69.8594 Q419.0781,69.7813 419.2813,69.7813 Q419.6094,69.7813 419.8594,70.0469 Q420.125,70.2969 420.125,70.6406 Q420.125,70.9844 419.7813,71.3906 Q419.2813,71.9688 418.4844,72.2969 Q417.4063,72.75 416.1094,72.75 Q414.5938,72.75 413.3906,72.125 Q412.4063,71.625 411.7188,70.5625 Q411.0313,69.4844 411.0313,68.2031 L411.0313,67.0469 Q411.0313,65.7188 411.6406,64.5781 Q412.2656,63.4219 413.3594,62.8125 Q414.4531,62.1875 415.6875,62.1875 Q416.4219,62.1875 417.0625,62.3594 Q417.7188,62.5156 418.2656,62.875 Z " fill="#000000"/><text fill="#000000" font-family="sans-serif" font-size="14" lengthAdjust="spacing" textLength="83" x="429.5" y="72.7285">JPlagOptions</text><line style="stroke:#181818;stroke-width:0.5;" x1="401.5" x2="514.5" y1="83" y2="83"/><line style="stroke:#181818;stroke-width:0.5;" x1="401.5" x2="514.5" y1="91" y2="91"/></g><!--MD5=[01833df09a494634fc642524a82b6922]
class LanguageOption--><g id="elem_LanguageOption"><rect codeLine="9" fill="#F1F1F1" height="136.0469" id="LanguageOption" rx="2.5" ry="2.5" style="stroke:#181818;stroke-width:0.5;" width="177" x="550.5" y="7"/><ellipse cx="583.05" cy="23" fill="#EB937F" rx="11" ry="11" style="stroke:#181818;stroke-width:1.0;"/><path d="M581.9094,23.7969 L581.9094,26.2969 L586.2375,26.2969 L586.2375,25.375 Q586.2375,24.7656 586.4719,24.5 Q586.7219,24.2344 587.0969,24.2344 Q587.4719,24.2344 587.7063,24.5 Q587.9406,24.7656 587.9406,25.375 L587.9406,28 L579.9406,28 Q579.3156,28 579.05,27.7656 Q578.8,27.5313 578.8,27.1406 Q578.8,26.7656 579.0656,26.5313 Q579.3313,26.2969 579.9406,26.2969 L580.2063,26.2969 L580.2063,19.6406 L579.9406,19.6406 Q579.3156,19.6406 579.05,19.4063 Q578.8,19.1719 578.8,18.7813 Q578.8,18.4063 579.05,18.1719 Q579.3156,17.9375 579.9406,17.9375 L587.5656,17.9375 L587.5656,20.5313 Q587.5656,21.1406 587.3313,21.4063 Q587.1125,21.6563 586.7219,21.6563 Q586.3469,21.6563 586.1125,21.4063 Q585.8781,21.1406 585.8781,20.5313 L585.8781,19.6406 L581.9094,19.6406 L581.9094,22.0938 L583.3938,22.0938 Q583.3938,21.4375 583.5188,21.25 Q583.7844,20.8438 584.2531,20.8438 Q584.6281,20.8438 584.8625,21.1094 Q585.0969,21.3594 585.0969,21.9688 L585.0969,23.9375 Q585.0969,24.4844 584.9719,24.6719 Q584.7063,25.0625 584.2531,25.0625 Q583.7844,25.0625 583.5188,24.6563 Q583.3938,24.4688 583.3938,23.7969 L581.9094,23.7969 Z " fill="#000000"/><text fill="#000000" font-family="sans-serif" font-size="14" lengthAdjust="spacing" textLength="106" x="600.95" y="28.7285">LanguageOption</text><line style="stroke:#181818;stroke-width:0.5;" x1="551.5" x2="726.5" y1="39" y2="39"/><text fill="#000000" font-family="sans-serif" font-size="14" lengthAdjust="spacing" textLength="37" x="556.5" y="57.5332">JAVA,</text><text fill="#000000" font-family="sans-serif" font-size="14" lengthAdjust="spacing" textLength="76" x="556.5" y="75.1426">PYTHON_3,</text><text fill="#000000" font-family="sans-serif" font-size="14" lengthAdjust="spacing" textLength="12" x="556.5" y="92.752">...</text><line style="stroke:#181818;stroke-width:0.5;" x1="551.5" x2="726.5" y1="99.8281" y2="99.8281"/><text fill="#000000" font-family="sans-serif" font-size="14" lengthAdjust="spacing" textLength="165" x="556.5" y="118.3613">getDisplayName() : String,</text><text fill="#000000" font-family="sans-serif" font-size="14" lengthAdjust="spacing" textLength="143" x="556.5" y="135.9707">getClassPath() : String</text></g><!--MD5=[dc08e57b8afea6c01313f010ef7536b5]
class Submission--><g id="elem_Submission"><rect codeLine="16" fill="#F1F1F1" height="100.8281" id="Submission" rx="2.5" ry="2.5" style="stroke:#181818;stroke-width:0.5;" width="178" x="174" y="364"/><ellipse cx="222.75" cy="380" fill="#ADD1B2" rx="11" ry="11" style="stroke:#181818;stroke-width:1.0;"/><path d="M225.5156,375.875 Q225.6719,375.6563 225.8594,375.5469 Q226.0469,375.4375 226.2656,375.4375 Q226.6406,375.4375 226.875,375.7031 Q227.1094,375.9531 227.1094,376.5625 L227.1094,378.0156 Q227.1094,378.625 226.875,378.8906 Q226.6406,379.1563 226.2656,379.1563 Q225.9219,379.1563 225.7188,378.9531 Q225.5156,378.7656 225.4063,378.25 Q225.3594,377.8906 225.1719,377.7031 Q224.8438,377.3281 224.2344,377.1094 Q223.625,376.8906 223,376.8906 Q222.2344,376.8906 221.5938,377.2188 Q220.9688,377.5469 220.4688,378.2969 Q219.9844,379.0469 219.9844,380.0781 L219.9844,381.1719 Q219.9844,382.4063 220.875,383.2344 Q221.7656,384.0469 223.3594,384.0469 Q224.2969,384.0469 224.9531,383.7969 Q225.3438,383.6406 225.7656,383.2031 Q226.0313,382.9375 226.1719,382.8594 Q226.3281,382.7813 226.5313,382.7813 Q226.8594,382.7813 227.1094,383.0469 Q227.375,383.2969 227.375,383.6406 Q227.375,383.9844 227.0313,384.3906 Q226.5313,384.9688 225.7344,385.2969 Q224.6563,385.75 223.3594,385.75 Q221.8438,385.75 220.6406,385.125 Q219.6563,384.625 218.9688,383.5625 Q218.2813,382.4844 218.2813,381.2031 L218.2813,380.0469 Q218.2813,378.7188 218.8906,377.5781 Q219.5156,376.4219 220.6094,375.8125 Q221.7031,375.1875 222.9375,375.1875 Q223.6719,375.1875 224.3125,375.3594 Q224.9688,375.5156 225.5156,375.875 Z " fill="#000000"/><text fill="#000000" font-family="sans-serif" font-size="14" lengthAdjust="spacing" textLength="72" x="243.25" y="385.7285">Submission</text><line style="stroke:#181818;stroke-width:0.5;" x1="175" x2="351" y1="396" y2="396"/><line style="stroke:#181818;stroke-width:0.5;" x1="175" x2="351" y1="404" y2="404"/><text fill="#000000" font-family="sans-serif" font-size="14" lengthAdjust="spacing" textLength="119" x="180" y="422.5332">getName() : String,</text><text fill="#000000" font-family="sans-serif" font-size="14" lengthAdjust="spacing" textLength="107" x="180" y="440.1426">getFiles() : File[],</text><text fill="#000000" font-family="sans-serif" font-size="14" lengthAdjust="spacing" textLength="166" x="180" y="457.752">getTokenList() : TokenList</text></g><!--MD5=[5f0899136ed8f523b18ed05779c24112]
class Match--><g id="elem_Match"><rect codeLine="21" fill="#F1F1F1" height="100.8281" id="Match" rx="2.5" ry="2.5" style="stroke:#181818;stroke-width:0.5;" width="166" x="184" y="203"/><ellipse cx="243.75" cy="219" fill="#ADD1B2" rx="11" ry="11" style="stroke:#181818;stroke-width:1.0;"/><path d="M246.5156,214.875 Q246.6719,214.6563 246.8594,214.5469 Q247.0469,214.4375 247.2656,214.4375 Q247.6406,214.4375 247.875,214.7031 Q248.1094,214.9531 248.1094,215.5625 L248.1094,217.0156 Q248.1094,217.625 247.875,217.8906 Q247.6406,218.1563 247.2656,218.1563 Q246.9219,218.1563 246.7188,217.9531 Q246.5156,217.7656 246.4063,217.25 Q246.3594,216.8906 246.1719,216.7031 Q245.8438,216.3281 245.2344,216.1094 Q244.625,215.8906 244,215.8906 Q243.2344,215.8906 242.5938,216.2188 Q241.9688,216.5469 241.4688,217.2969 Q240.9844,218.0469 240.9844,219.0781 L240.9844,220.1719 Q240.9844,221.4063 241.875,222.2344 Q242.7656,223.0469 244.3594,223.0469 Q245.2969,223.0469 245.9531,222.7969 Q246.3438,222.6406 246.7656,222.2031 Q247.0313,221.9375 247.1719,221.8594 Q247.3281,221.7813 247.5313,221.7813 Q247.8594,221.7813 248.1094,222.0469 Q248.375,222.2969 248.375,222.6406 Q248.375,222.9844 248.0313,223.3906 Q247.5313,223.9688 246.7344,224.2969 Q245.6563,224.75 244.3594,224.75 Q242.8438,224.75 241.6406,224.125 Q240.6563,223.625 239.9688,222.5625 Q239.2813,221.4844 239.2813,220.2031 L239.2813,219.0469 Q239.2813,217.7188 239.8906,216.5781 Q240.5156,215.4219 241.6094,214.8125 Q242.7031,214.1875 243.9375,214.1875 Q244.6719,214.1875 245.3125,214.3594 Q245.9688,214.5156 246.5156,214.875 Z " fill="#000000"/><text fill="#000000" font-family="sans-serif" font-size="14" lengthAdjust="spacing" textLength="38" x="264.25" y="224.7285">Match</text><line style="stroke:#181818;stroke-width:0.5;" x1="185" x2="349" y1="235" y2="235"/><line style="stroke:#181818;stroke-width:0.5;" x1="185" x2="349" y1="243" y2="243"/><text fill="#000000" font-family="sans-serif" font-size="14" lengthAdjust="spacing" textLength="134" x="190" y="261.5332">getStartOfFirst() : int,</text><text fill="#000000" font-family="sans-serif" font-size="14" lengthAdjust="spacing" textLength="154" x="190" y="279.1426">getStartOfSecond() : int,</text><text fill="#000000" font-family="sans-serif" font-size="14" lengthAdjust="spacing" textLength="101" x="190" y="296.752">getLength() : int</text></g><!--MD5=[4c9b4438c9c10c2a107e4ec9dce12779]
link JPlagResult to JPlagOptions--><g id="link_JPlagResult_JPlagOptions"><path codeLine="27" d="M365.07,75 C375.07,75 385.06,75 395.06,75 " fill="none" id="JPlagResult-to-JPlagOptions" style="stroke:#181818;stroke-width:1.0;"/><polygon fill="#181818" points="400.28,75,391.28,71,395.28,75,391.28,79,400.28,75" style="stroke:#181818;stroke-width:1.0;"/><text fill="#000000" font-family="sans-serif" font-size="13" lengthAdjust="spacing" textLength="7" x="385.4362" y="71.4926">1</text></g><!--MD5=[b73c2007c0762a26e87dd1c15aba5fd6]
link JPlagOptions to LanguageOption--><g id="link_JPlagOptions_LanguageOption"><path codeLine="28" d="M515.62,75 C525.47,75 535.32,75 545.17,75 " fill="none" id="JPlagOptions-to-LanguageOption" style="stroke:#181818;stroke-width:1.0;"/><polygon fill="#181818" points="550.32,75,541.32,71,545.32,75,541.32,79,550.32,75" style="stroke:#181818;stroke-width:1.0;"/><text fill="#000000" font-family="sans-serif" font-size="13" lengthAdjust="spacing" textLength="7" x="535.3983" y="71.8207">1</text></g><!--MD5=[a5b2db5583c05820a3978efcbab98e05]
link JPlagResult to SubmissionSet--><g id="link_JPlagResult_SubmissionSet"><path codeLine="29" d="M305.91,116.94 C340.95,150.37 389.46,196.65 419.77,225.57 " fill="none" id="JPlagResult-to-SubmissionSet" style="stroke:#181818;stroke-width:1.0;"/><polygon fill="#181818" points="423.74,229.36,419.9823,220.2562,420.1197,225.9114,414.4645,226.0487,423.74,229.36" style="stroke:#181818;stroke-width:1.0;"/><text fill="#000000" font-family="sans-serif" font-size="13" lengthAdjust="spacing" textLength="7" x="409.6265" y="218.6643">1</text></g><!--MD5=[7b0138ab68745808fd192dff35f3be28]
link JPlagResult to JPlagComparison--><g id="link_JPlagResult_JPlagComparison"><path codeLine="30" d="M220.09,116.94 C185.05,150.37 136.54,196.65 106.23,225.57 " fill="none" id="JPlagResult-to-JPlagComparison" style="stroke:#181818;stroke-width:1.0;"/><polygon fill="#181818" points="102.26,229.36,111.5355,226.0487,105.8803,225.9114,106.0177,220.2562,102.26,229.36" style="stroke:#181818;stroke-width:1.0;"/><text fill="#000000" font-family="sans-serif" font-size="13" lengthAdjust="spacing" textLength="20" x="85.9141" y="218.6643">0..*</text></g><!--MD5=[e049302016d6b6c89b2b2e485f03e0a2]
link SubmissionSet to Submission--><g id="link_SubmissionSet_Submission"><path codeLine="31" d="M421.1,277.62 C395.97,299.22 357.52,332.27 324.83,360.36 " fill="none" id="SubmissionSet-to-Submission" style="stroke:#181818;stroke-width:1.0;"/><polygon fill="#181818" points="320.88,363.76,330.3165,360.9399,324.6763,360.506,325.1101,354.8659,320.88,363.76" style="stroke:#181818;stroke-width:1.0;"/><text fill="#000000" font-family="sans-serif" font-size="13" lengthAdjust="spacing" textLength="20" x="307.6131" y="353.0316">0..*</text></g><!--MD5=[cdee21aae62b171ea7623fd947f07392]
link JPlagComparison to Submission--><g id="link_JPlagComparison_Submission"><path codeLine="32" d="M104.9,277.62 C130.03,299.22 168.48,332.27 201.17,360.36 " fill="none" id="JPlagComparison-to-Submission" style="stroke:#181818;stroke-width:1.0;"/><polygon fill="#181818" points="205.12,363.76,200.8899,354.8659,201.3237,360.506,195.6835,360.9399,205.12,363.76" style="stroke:#181818;stroke-width:1.0;"/><text fill="#000000" font-family="sans-serif" font-size="13" lengthAdjust="spacing" textLength="7" x="189.4884" y="353.0316">2</text></g><!--MD5=[496db328a249affadd8f28a57307dfd3]
link JPlagComparison to Match--><g id="link_JPlagComparison_Match"><path codeLine="33" d="M149.24,253.5 C159.04,253.5 168.83,253.5 178.62,253.5 " fill="none" id="JPlagComparison-to-Match" style="stroke:#181818;stroke-width:1.0;"/><polygon fill="#181818" points="183.74,253.5,174.74,249.5,178.74,253.5,174.74,257.5,183.74,253.5" style="stroke:#181818;stroke-width:1.0;"/><text fill="#000000" font-family="sans-serif" font-size="13" lengthAdjust="spacing" textLength="20" x="156.0169" y="250.3543">0..*</text></g><!--MD5=[bb092cfe96a6b7b26362245d817100f0]
@startuml
class JPlagResult {
  getDuration() : long
  getSimilarityDistribution() : int[]

}
class SubmissionSet
class JPlagComparison
class JPlagOptions
enum LanguageOption {
  JAVA,
  PYTHON_3,
  ...
  getDisplayName() : String,
  getClassPath() : String
}
class Submission {
  getName() : String,
  getFiles() : File[],
  getTokenList() : TokenList
}
class Match {
  getStartOfFirst() : int,
  getStartOfSecond() : int,
  getLength() : int
}

JPlagResult -right-> "1" JPlagOptions
JPlagOptions -right-> "1" LanguageOption
JPlagResult - -> "1" SubmissionSet
JPlagResult - -> "0..*" JPlagComparison
SubmissionSet -down-> "0..*" Submission
JPlagComparison -down-> "2" Submission
JPlagComparison -right-> "0..*" Match
@enduml

PlantUML version 1.2022.4(Sat Apr 09 15:29:17 CEST 2022)
(GPL source distribution)
Java Runtime: OpenJDK Runtime Environment
JVM: OpenJDK 64-Bit Server VM
Default Encoding: UTF-8
Language: en
Country: US
--></g></svg>